<svg xmlns="http://www.w3.org/2000/svg" width="1024" height="1024" viewBox="0 0 1024 1024">
  <defs>
    <style>
      .cls-1 {
        fill: #753bbd;
        fill-rule: evenodd;
      }
    </style>
  </defs>
  <g id="_Group_" data-name="&lt;Group&gt;">
    <path id="_Path_" data-name="&lt;Path&gt;" class="cls-1" d="M806.89,743.036l52.8-12.445a11.015,11.015,0,0,0,7.1-7.73s4.637-23.925,6.419-39.991c0.56-4.944.88-8.864,0.88-8.864a4.551,4.551,0,0,0-5.57-5.1l-57.114,7.534a7.237,7.237,0,0,0-6.34,6.751l-3.621,54.882a4.344,4.344,0,0,0,5.441,4.964"/>
    <path id="_Path_2" data-name="&lt;Path&gt;" class="cls-1" d="M556.359,146.3l41.328,36.273a7.232,7.232,0,0,0,9.255.293l45.745-35.053a4.547,4.547,0,0,0,.326-7.54s-3.013-2.551-6.908-5.649c-12.582-10.11-32.8-23.756-32.8-23.756a11.008,11.008,0,0,0-10.489-.437L556.7,138.941a4.345,4.345,0,0,0-.338,7.358"/>
    <path id="_Path_3" data-name="&lt;Path&gt;" class="cls-1" d="M728.7,378.377l33.175,29.477-2.61,44.257a5.563,5.563,0,0,0,5.63,6.138l62.364,1.989a6.015,6.015,0,0,0,6.425-5.74s0.039-.92.111-4.383c0.4-18.551-1.22-47.721-1.22-47.721a8.138,8.138,0,0,0-6.418-7.2l-25.6-3.392,15.719-20.514a8.1,8.1,0,0,0-.554-9.615s-19.5-21.753-32.888-34.577c-2.517-2.426-3.2-3.046-3.2-3.046a6.007,6.007,0,0,0-8.6.476l-42.7,45.536a5.555,5.555,0,0,0,.359,8.316"/>
    <path id="_Path_4" data-name="&lt;Path&gt;" class="cls-1" d="M822.918,890.455s5.635-1.4,11.186-2.988c15.289-4.455,36.938-13.4,36.938-13.4a16.644,16.644,0,0,0,7.945-8.1s8.532-21.78,12.686-37.1c1.547-5.649,2.832-11.252,2.832-11.252,0.763-3.3-1.285-5.251-4.547-4.331l-52.789,12.465A9.644,9.644,0,0,0,830.053,833L818.508,885.98c-0.861,3.281,1.116,5.29,4.41,4.475"/>
    <path id="_Path_5" data-name="&lt;Path&gt;" class="cls-1" d="M910.162,601.555L880.829,555.9a4.342,4.342,0,0,0-7.358-.2l-35.529,41.987a7.231,7.231,0,0,0-.124,9.263l35.849,45.124a4.526,4.526,0,0,0,7.527.183s2.492-3.072,5.532-6.986c9.888-12.817,23.175-33.221,23.175-33.221a11.017,11.017,0,0,0,.261-10.5"/>
    <path id="_Path_6" data-name="&lt;Path&gt;" class="cls-1" d="M811.415,345.25l57.113,7.573a4.548,4.548,0,0,0,5.564-5.1s-0.332-3.953-.894-8.877c-1.774-16.053-6.392-39.985-6.392-39.985a11,11,0,0,0-7.1-7.73l-52.8-12.445a4.338,4.338,0,0,0-5.44,4.957l3.614,54.85a7.232,7.232,0,0,0,6.34,6.758"/>
    <path id="_Path_7" data-name="&lt;Path&gt;" class="cls-1" d="M830.049,188.712a9.643,9.643,0,0,0,7.116,7.241l52.783,12.465c3.261,0.926,5.316-1.024,4.566-4.331,0,0-1.285-5.63-2.837-11.233-4.162-15.361-12.707-37.121-12.707-37.121a16.654,16.654,0,0,0-7.952-8.095S849.383,138.7,834.1,134.26c-5.577-1.6-11.174-3.007-11.174-3.007-3.287-.828-5.27,1.181-4.4,4.462Z"/>
    <path id="_Path_8" data-name="&lt;Path&gt;" class="cls-1" d="M681.415,219.792l54.791,4.553A4.339,4.339,0,0,0,741.261,219l-11.532-53a11.01,11.01,0,0,0-7.605-7.24s-23.815-5.075-39.835-7.123c-4.971-.607-8.9-1-8.9-1A4.536,4.536,0,0,0,668.2,156.1l6.574,57.244a7.224,7.224,0,0,0,6.641,6.451"/>
    <path id="_Path_9" data-name="&lt;Path&gt;" class="cls-1" d="M628.99,225.9l-3.144-27.447a8.115,8.115,0,0,0-7.084-6.536s-29.131-2.094-47.688-2.048c-3.47.013-4.39,0.039-4.39,0.039a6.01,6.01,0,0,0-5.851,6.32l0.685,47.388a5.852,5.852,0,0,0-.926-1.135l-41.328-36.234a8.042,8.042,0,0,0-9.608-.084l-41.968,35.516a5.741,5.741,0,0,0-.169,8.441l42.012,43.93a5.554,5.554,0,0,0,8.323.079l42.764-43.207a5.931,5.931,0,0,0,.991-1.272l0.131,8.956a5.555,5.555,0,0,0,6.034,5.733l48.561-1.989,29.275,32.946a5.564,5.564,0,0,0,8.323.359l45.515-42.711a6,6,0,0,0,.484-8.6s-0.607-.665-3.034-3.177c-12.83-13.4-34.564-32.881-34.564-32.881a8.117,8.117,0,0,0-9.621-.561Z"/>
    <path id="_Path_10" data-name="&lt;Path&gt;" class="cls-1" d="M138.877,467.307a4.335,4.335,0,0,0,7.351.333L182.5,426.279a7.242,7.242,0,0,0,.286-9.256l-35.053-45.737a4.541,4.541,0,0,0-7.534-.327s-2.557,3.034-5.662,6.934c-10.1,12.6-23.743,32.79-23.743,32.79a10.992,10.992,0,0,0-.443,10.489Z"/>
    <path id="_Path_11" data-name="&lt;Path&gt;" class="cls-1" d="M159.365,300.2s-5.049,23.828-7.124,39.822c-0.639,4.964-1.024,8.9-1.024,8.9a4.555,4.555,0,0,0,5.486,5.192l57.244-6.575a7.235,7.235,0,0,0,6.457-6.64l4.534-54.785a4.352,4.352,0,0,0-5.356-5.062L166.6,292.6a11.01,11.01,0,0,0-7.233,7.605"/>
    <path id="_Path_12" data-name="&lt;Path&gt;" class="cls-1" d="M136.322,203.8l53-11.532a9.655,9.655,0,0,0,7.24-7.117l12.465-52.776c0.926-3.261-1.025-5.316-4.331-4.559,0,0-5.616,1.285-11.246,2.837C178.126,134.8,156.34,143.33,156.34,143.33a16.667,16.667,0,0,0-8.095,7.944s-8.936,21.663-13.385,36.952c-1.6,5.544-3.006,11.16-3.006,11.16-0.822,3.294,1.193,5.277,4.468,4.41"/>
    <path id="_Path_13" data-name="&lt;Path&gt;" class="cls-1" d="M17.511,550.186c2.8,5.087,5.785,10.038,5.785,10.038,1.748,2.9,4.579,2.877,6.282-.052l29.306-45.614a9.682,9.682,0,0,0,.092-10.156L30.432,458.26c-1.657-2.961-4.475-3.026-6.269-.156,0,0-3.053,4.9-5.942,9.947C10.342,481.847.975,503.28,0.975,503.28a16.6,16.6,0,0,0-.1,11.337s8.988,21.623,16.633,35.569"/>
    <path id="_Path_14" data-name="&lt;Path&gt;" class="cls-1" d="M422.448,910.249l45.626-29.333a4.339,4.339,0,0,0,.209-7.358l-41.961-35.536a7.237,7.237,0,0,0-9.262-.13l-45.132,35.836a4.541,4.541,0,0,0-.195,7.54s3.078,2.5,7.012,5.564c12.765,9.856,33.207,23.156,33.207,23.156a11,11,0,0,0,10.5.261"/>
    <path id="_Path_15" data-name="&lt;Path&gt;" class="cls-1" d="M463.819,29.656l45.594,29.313a9.656,9.656,0,0,0,10.156.1l46.142-28.531c2.961-1.657,3.026-4.481.156-6.275,0,0-4.872-3.04-9.914-5.975C542.17,10.414,520.716,1.027,520.716,1.027A16.6,16.6,0,0,0,509.38.93S487.744,9.924,473.8,17.582c-5.081,2.811-10.032,5.792-10.032,5.792-2.9,1.748-2.883,4.579.047,6.281"/>
    <path id="_Path_16" data-name="&lt;Path&gt;" class="cls-1" d="M417.039,186.171a7.23,7.23,0,0,0,9.262-.124L468.275,150.5a4.342,4.342,0,0,0-.216-7.358l-45.626-29.313a10.981,10.981,0,0,0-10.5.261s-20.409,13.28-33.219,23.169c-3.921,3.039-6.987,5.538-6.987,5.538a4.526,4.526,0,0,0,.189,7.527Z"/>
    <path id="_Path_17" data-name="&lt;Path&gt;" class="cls-1" d="M324.043,246.048a6.017,6.017,0,0,0,.339,8.61l32.288,31.349a5.879,5.879,0,0,0-1.4-.137l-54.877,3.594a8.019,8.019,0,0,0-6.849,6.731l-4.559,54.8a5.734,5.734,0,0,0,5.845,6.086l60.772,1.35a5.55,5.55,0,0,0,5.936-5.831l-0.287-60.773a5.741,5.741,0,0,0-.183-1.546l8.082,7.841a5.553,5.553,0,0,0,8.316-.216l34.3-37.251,40.937,2.413a5.56,5.56,0,0,0,6.138-5.622l2.016-62.384a5.981,5.981,0,0,0-5.747-6.4s-0.914-.039-4.384-0.118c-18.557-.4-47.707,1.194-47.707,1.194a8.13,8.13,0,0,0-7.2,6.412l-3.959,29.933-19.94-15.824a8.129,8.129,0,0,0-9.635.385s-22.067,19.085-35.144,32.274c-2.466,2.472-3.092,3.131-3.092,3.131"/>
    <path id="_Path_18" data-name="&lt;Path&gt;" class="cls-1" d="M284.242,220.865l54.883-3.62a7.228,7.228,0,0,0,6.751-6.34l7.566-57.127a4.542,4.542,0,0,0-5.1-5.557s-3.946.333-8.89,0.894c-16.065,1.78-39.991,6.418-39.991,6.418a11,11,0,0,0-7.729,7.1l-12.459,52.789a4.348,4.348,0,0,0,4.964,5.44"/>
    <path id="_Path_19" data-name="&lt;Path&gt;" class="cls-1" d="M207.637,371.292l17.05,22.249-25.621,2.936a8.136,8.136,0,0,0-6.536,7.083s-2.1,29.124-2.048,47.682c0.007,3.489.026,4.39,0.026,4.39a6.011,6.011,0,0,0,6.32,5.851l62.378-.907a5.561,5.561,0,0,0,5.74-6.034L263,406.978l32.2-28.628a5.557,5.557,0,0,0,.359-8.317l-42.7-45.5a5.986,5.986,0,0,0-8.589-.476s-0.653.6-3.171,3.014c-13.41,12.856-32.894,34.6-32.894,34.6a8.115,8.115,0,0,0-.561,9.621"/>
    <path id="_Path_20" data-name="&lt;Path&gt;" class="cls-1" d="M347.607,530.788l0.169-38.041c0.013-3.392-1.937-4.2-4.331-1.807l-16.568,16.587a6.182,6.182,0,0,0,0,8.721l16.346,16.346c2.394,2.394,4.37,1.585,4.384-1.806"/>
    <path id="_Path_21" data-name="&lt;Path&gt;" class="cls-1" d="M142.71,652.244a4.541,4.541,0,0,0,7.54-.189l35.85-45.124a7.241,7.241,0,0,0-.131-9.263l-35.536-41.961a4.339,4.339,0,0,0-7.358.209l-29.332,45.627a10.979,10.979,0,0,0,.261,10.5s13.3,20.442,23.149,33.194c3.059,3.947,5.557,7.012,5.557,7.012"/>
    <path id="_Path_22" data-name="&lt;Path&gt;" class="cls-1" d="M242.4,463.4l-36.254,41.335a8.034,8.034,0,0,0-.085,9.6l35.543,41.98a5.737,5.737,0,0,0,8.441.17l43.91-42.026a5.558,5.558,0,0,0,.072-8.323L250.841,463.37a5.735,5.735,0,0,0-8.44.026"/>
    <path id="_Path_23" data-name="&lt;Path&gt;" class="cls-1" d="M245.95,699.926a6.011,6.011,0,0,0,8.609-.326l43.488-44.733a5.554,5.554,0,0,0-.215-8.317L263,614.451l1.957-47.3a5.555,5.555,0,0,0-5.734-6.034l-62.377-.907a6.013,6.013,0,0,0-6.327,5.851s-0.02.92-.033,4.4c-0.065,18.57,2.048,47.681,2.048,47.681a8.116,8.116,0,0,0,6.536,7.084l29.7,3.411-18.584,23.417a8.118,8.118,0,0,0,.385,9.634s19.105,22.086,32.262,35.152c2.465,2.465,3.118,3.085,3.118,3.085"/>
    <path id="_Path_24" data-name="&lt;Path&gt;" class="cls-1" d="M204.686,893.9c3.306,0.757,5.25-1.285,4.33-4.553l-12.465-52.782a9.674,9.674,0,0,0-7.24-7.117l-52.978-11.545c-3.281-.874-5.29,1.109-4.474,4.4,0,0,1.389,5.616,3,11.193,4.461,15.257,13.384,36.919,13.384,36.919a16.592,16.592,0,0,0,8.082,7.945s21.786,8.525,37.122,12.713c5.628,1.533,11.239,2.824,11.239,2.824"/>
    <path id="_Path_25" data-name="&lt;Path&gt;" class="cls-1" d="M294.851,664.631a5.732,5.732,0,0,0-5.846,6.086l4.541,54.817a8.032,8.032,0,0,0,6.849,6.732l54.869,3.587a5.726,5.726,0,0,0,5.988-5.949l0.294-60.759a5.556,5.556,0,0,0-5.936-5.838Z"/>
    <path id="_Path_26" data-name="&lt;Path&gt;" class="cls-1" d="M342.623,395.944l-47.682,19.764c-3.13,1.3-5.674,2.388-5.662,2.427a0.079,0.079,0,0,1-.058.1c-0.046.013,0.978,2.589,2.27,5.72l17.291,41.772a17.147,17.147,0,0,0,8.05,8.056l25.23,10.443c3.137,1.3,5.714-.411,5.734-3.8l0.482-80.674c0.02-3.392-2.524-5.1-5.655-3.8"/>
    <path id="_Path_27" data-name="&lt;Path&gt;" class="cls-1" d="M353.423,867.928L345.869,810.8a7.233,7.233,0,0,0-6.752-6.34l-54.875-3.594a4.348,4.348,0,0,0-4.964,5.44l12.471,52.782a10.991,10.991,0,0,0,7.73,7.1s23.932,4.624,39.985,6.4c4.925,0.561,8.857.893,8.857,0.893a4.538,4.538,0,0,0,5.1-5.551"/>
    <path id="_Path_28" data-name="&lt;Path&gt;" class="cls-1" d="M373.975,608.124l-56.448-55.816c-2.414-2.381-5.447-1.767-6.745,1.363l-18.968,45.764a6.184,6.184,0,0,0,3.333,8.056l41.909,17.37a17.142,17.142,0,0,0,11.389,0l24.219-10.045c3.131-1.3,3.725-4.312,1.311-6.692"/>
    <path id="_Path_29" data-name="&lt;Path&gt;" class="cls-1" d="M224.948,735.605L220.4,680.821a7.237,7.237,0,0,0-6.458-6.647L156.693,667.6a4.54,4.54,0,0,0-5.465,5.2s0.4,3.926,1.03,8.871c2.068,16,7.11,39.86,7.11,39.86a10.994,10.994,0,0,0,7.227,7.606l53,11.526a4.346,4.346,0,0,0,5.355-5.056"/>
    <path id="_Path_30" data-name="&lt;Path&gt;" class="cls-1" d="M777.942,699.947s0.659-.626,3.131-3.1c13.189-13.071,32.275-35.138,32.275-35.138a8.139,8.139,0,0,0,.384-9.634l-17.181-21.649,29.626-3.92a8.115,8.115,0,0,0,6.412-7.195s1.6-29.144,1.194-47.707c-0.078-3.471-.117-4.39-0.117-4.39a5.983,5.983,0,0,0-6.4-5.74l-62.384,2.009a5.565,5.565,0,0,0-5.629,6.138l2.6,43.97-35.777,32.92a5.554,5.554,0,0,0-.209,8.323l7.847,8.082-60.858.959a6.158,6.158,0,0,0-6.157,6.151l-0.548,63.323a5.09,5.09,0,0,0,5.759,5.538l57.381-6.477a8.866,8.866,0,0,0,6.895-7.117l4.742-54.941,28.4,29.255a6.027,6.027,0,0,0,8.617.339"/>
    <path id="_Path_31" data-name="&lt;Path&gt;" class="cls-1" d="M729.73,855.728l11.526-53a4.345,4.345,0,0,0-5.056-5.355l-54.785,4.54a7.23,7.23,0,0,0-6.64,6.457l-6.568,57.244a4.55,4.55,0,0,0,5.2,5.479s3.913-.391,8.883-1.024c16.007-2.061,39.835-7.11,39.835-7.11a10.993,10.993,0,0,0,7.606-7.233"/>
    <path id="_Path_32" data-name="&lt;Path&gt;" class="cls-1" d="M994.337,560.173c1.7,2.929,4.533,2.955,6.283.053,0,0,2.99-4.951,5.77-10.052,7.65-13.952,16.66-35.575,16.66-35.575a16.586,16.586,0,0,0-.1-11.33s-9.36-21.434-17.25-35.23c-2.93-5.048-5.982-9.921-5.982-9.921-1.794-2.876-4.618-2.805-6.269.15l-28.537,46.149A9.647,9.647,0,0,0,965,514.566Z"/>
    <path id="_Path_33" data-name="&lt;Path&gt;" class="cls-1" d="M883.719,370.978a4.547,4.547,0,0,0-7.54.326l-35.054,45.744a7.207,7.207,0,0,0,.293,9.249l36.267,41.329a4.344,4.344,0,0,0,7.357-.34l28.518-46.109a11.008,11.008,0,0,0-.437-10.489s-13.646-20.22-23.755-32.8c-3.1-3.894-5.649-6.907-5.649-6.907"/>
    <path id="_Path_34" data-name="&lt;Path&gt;" class="cls-1" d="M662.321,815.794s21.74-19.484,34.6-32.895c2.413-2.524,3.014-3.176,3.014-3.176a6,6,0,0,0-.484-8.6l-45.5-42.692a5.566,5.566,0,0,0-8.317.359L618.383,759.45l-50.61-2.081a5.564,5.564,0,0,0-6.04,5.734l-0.163,11.245a5.869,5.869,0,0,0-.952-1.2l-42.764-43.187a5.559,5.559,0,0,0-8.323.071l-42.019,43.912a5.73,5.73,0,0,0,.169,8.44l41.961,35.536a8.042,8.042,0,0,0,9.608-.085l41.342-36.247a5.942,5.942,0,0,0,.893-1.063l-0.652,44.962a6.018,6.018,0,0,0,5.858,6.327s0.906,0.026,4.389.026c18.551,0.045,47.669-2.055,47.669-2.055a8.138,8.138,0,0,0,7.09-6.536l2.9-25.262L652.7,816.355a8.128,8.128,0,0,0,9.621-.561"/>
    <path id="_Path_35" data-name="&lt;Path&gt;" class="cls-1" d="M613.3,913.19s20.194-13.646,32.8-23.73c3.907-3.105,6.933-5.668,6.933-5.668a4.541,4.541,0,0,0-.333-7.534l-45.731-35.053a7.24,7.24,0,0,0-9.262.287l-41.367,36.266a4.338,4.338,0,0,0,.339,7.351l46.136,28.524a10.979,10.979,0,0,0,10.482-.443"/>
    <path id="_Path_36" data-name="&lt;Path&gt;" class="cls-1" d="M519.589,965.019a9.667,9.667,0,0,0-10.156.091l-45.614,29.3c-2.935,1.709-2.955,4.534-.053,6.29,0,0,4.951,2.98,10.039,5.78,13.945,7.64,35.569,16.64,35.569,16.64a16.606,16.606,0,0,0,11.337-.1s21.433-9.37,35.229-17.26c5.048-2.88,9.94-5.936,9.94-5.936,2.877-1.794,2.812-4.611-.149-6.268Z"/>
    <path id="_Path_37" data-name="&lt;Path&gt;" class="cls-1" d="M418.533,371.253l56.8-56.546c2.407-2.387,1.807-5.407-1.324-6.7l-46.9-19.393c-3.13-1.3-5.7-2.335-5.707-2.3a0.084,0.084,0,0,1-.1.026c-0.046-.013-1.155,2.537-2.453,5.668l-17.3,41.739a17.212,17.212,0,0,0,0,11.383l10.26,24.786c1.3,3.131,4.325,3.738,6.725,1.344"/>
    <path id="_Path_38" data-name="&lt;Path&gt;" class="cls-1" d="M782.306,556.288l35.529-41.955a8.032,8.032,0,0,0-.091-9.6L781.5,463.39a5.732,5.732,0,0,0-8.441-.026l-43.2,42.77a5.558,5.558,0,0,0,.072,8.323l43.93,42a5.731,5.731,0,0,0,8.441-.169"/>
    <path id="_Path_39" data-name="&lt;Path&gt;" class="cls-1" d="M609.869,292.241a6.184,6.184,0,0,0-8.049-3.339l-41.929,17.376a17.131,17.131,0,0,0-8.049,8.056l-10.018,24.2c-1.3,3.138.417,5.688,3.8,5.675l79.447-.313c3.386-.013,5.1-2.589,3.8-5.72Z"/>
    <path id="_Path_40" data-name="&lt;Path&gt;" class="cls-1" d="M643.927,375.847l-23.078-.013c-3.392-.007-4.214,1.963-1.827,4.377l26.744,27.01c2.381,2.407,4.331,1.605,4.331-1.78l-0.007-23.43a6.189,6.189,0,0,0-6.163-6.164"/>
    <path id="_Path_41" data-name="&lt;Path&gt;" class="cls-1" d="M654.442,415.976L711.183,473.3c2.387,2.407,5.4,1.82,6.693-1.317l19.7-47.59c1.3-3.131,2.322-5.708,2.283-5.727a0.084,0.084,0,0,1-.032-0.124c0.026-.046-2.518-1.148-5.649-2.446L692.41,398.788a17.139,17.139,0,0,0-11.388-.006L655.8,409.238c-3.131,1.3-3.738,4.331-1.356,6.738"/>
    <path id="_Path_42" data-name="&lt;Path&gt;" class="cls-1" d="M610.654,651.671l-56.873,56.494c-2.406,2.387-1.813,5.4,1.318,6.7l47.094,19.522a6.186,6.186,0,0,0,8.057-3.333l17.37-41.928a17.142,17.142,0,0,0,0-11.389l-10.234-24.715c-1.3-3.131-4.325-3.737-6.732-1.35"/>
    <path id="_Path_43" data-name="&lt;Path&gt;" class="cls-1" d="M702.257,516.345c2.4-2.394,4.344-4.377,4.318-4.4a0.068,0.068,0,0,1,.019-0.092c0.027-.032-1.9-2.022-4.3-4.422l-16.241-16.268c-2.4-2.4-4.345-1.592-4.332,1.8l0.163,37.558c0.013,3.392,1.983,4.208,4.384,1.807Z"/>
    <path id="_Path_44" data-name="&lt;Path&gt;" class="cls-1" d="M730.523,360.636a5.727,5.727,0,0,0,5.949-5.987l-3.608-54.85a8.047,8.047,0,0,0-6.731-6.856l-54.817-4.54a5.734,5.734,0,0,0-6.086,5.851L663.892,355a5.551,5.551,0,0,0,5.832,5.936Z"/>
    <path id="_Path_45" data-name="&lt;Path&gt;" class="cls-1" d="M688.084,626.1l45.829-18.987a6.18,6.18,0,0,0,3.34-8.056l-17.345-41.909a17.141,17.141,0,0,0-8.042-8.055L687.64,539.052c-3.131-1.3-5.681.411-5.661,3.8l0.378,79.441c0.02,3.385,2.6,5.1,5.727,3.8"/>
    <path id="_Path_46" data-name="&lt;Path&gt;" class="cls-1" d="M378.329,641.29c0,3.392.032,6.164,0.058,6.157a0.081,0.081,0,0,1,.065.085c0,0.046,2.773.085,6.165,0.085l23.006-.006c3.392,0,4.193-1.951,1.78-4.338l-26.7-26.437c-2.414-2.387-4.384-1.565-4.377,1.826Z"/>
    <path id="_Path_47" data-name="&lt;Path&gt;" class="cls-1" d="M476.515,709.348l10.461-25.256c1.3-3.131-.411-5.708-3.8-5.727l-80.68-.411c-3.386-.013-5.1,2.531-3.8,5.662l19.757,47.616c1.3,3.131,2.388,5.675,2.414,5.655a0.1,0.1,0,0,1,.111.065c0.033,0.059,2.616-.958,5.746-2.257L468.465,717.4a17.169,17.169,0,0,0,8.05-8.056"/>
    <path id="_Path_48" data-name="&lt;Path&gt;" class="cls-1" d="M650.2,647.33a0.078,0.078,0,0,1,.071-0.059c0.039-.006.079-2.785,0.079-6.177l0.019-22.992c0-3.392-1.963-4.208-4.364-1.814l-26.861,26.757c-2.4,2.394-1.591,4.344,1.8,4.344l23.1-.007c3.385,0,6.158-.026,6.158-0.052"/>
    <path id="_Path_49" data-name="&lt;Path&gt;" class="cls-1" d="M493.7,682.8l16.561,16.561a6.185,6.185,0,0,0,8.715,0l16.358-16.32c2.4-2.394,1.586-4.37-1.8-4.383l-38.028-.183c-3.392-.019-4.2,1.924-1.806,4.325"/>
    <path id="_Path_50" data-name="&lt;Path&gt;" class="cls-1" d="M533.3,344.3c3.392-.013,4.2-1.989,1.8-4.383L519.065,323.9c-2.406-2.393-4.376-4.337-4.4-4.318a0.056,0.056,0,0,1-.079-0.013c-0.019-.026-2,1.918-4.4,4.312l-16.288,16.255c-2.393,2.394-1.584,4.344,1.808,4.324Z"/>
    <path id="_Path_51" data-name="&lt;Path&gt;" class="cls-1" d="M371.924,813.8l20.207-16.033,3.686,27.767a8.123,8.123,0,0,0,7.195,6.419s29.169,1.617,47.707,1.206c3.47-.052,4.37-0.091,4.37-0.091a6,6,0,0,0,5.747-6.412l-1.99-62.364a5.561,5.561,0,0,0-6.138-5.629l-42.985,2.518L377.442,726.16a5.553,5.553,0,0,0-8.317-.215l-44.752,43.467a6,6,0,0,0-.333,8.6s0.639,0.672,3.1,3.144c13.072,13.156,35.146,32.248,35.146,32.248a8.129,8.129,0,0,0,9.634.392"/>
    <path id="_Path_52" data-name="&lt;Path&gt;" class="cls-1" d="M378.765,375.7a0.058,0.058,0,0,1-.073.052c-0.045,0-.078,2.766-0.078,6.158l-0.006,23.006c0,3.391,1.963,4.207,4.363,1.813l26.855-26.756c2.4-2.388,1.591-4.345-1.8-4.345l-23.1.007c-3.385,0-6.163.032-6.163,0.065"/>
  </g>
</svg>
